<svg xmlns="http://www.w3.org/2000/svg" width="32" height="32" viewBox="0 0 32 32" fill="none">
  <!-- Resplandor verde lima para enlaces y botones interactivos -->
  <filter id="glow" x="-30%" y="-30%" width="170%" height="170%">
    <feGaussianBlur stdDeviation="1.5" result="blur" />
    <feComponentTransfer in="blur" result="glow">
      <feFuncA type="linear" slope="0.7"/>
    </feComponentTransfer>
    <feMerge>
      <feMergeNode in="glow"/>
      <feMergeNode in="SourceGraphic"/>
    </feMerge>
  </filter>

  <!-- Aura pulsante de selección -->
  <ellipse cx="14" cy="16" rx="12" ry="13" fill="#9AB55D" fill-opacity="0.25" />

  <g filter="url(#glow)">
    <!-- Tallito puntero (hotspot 4,2) -->
    <path d="M4 2 L8 6" stroke="#3E2511" stroke-width="2.8" stroke-linecap="round" />
    <circle cx="4" cy="2" r="1.8" fill="#A4E347" stroke="#173D2D" stroke-width="0.8" />

    <!-- Cáscara verde oscuro con contorno brillante -->
    <path d="M8 6 C13 3 20 6 23 11 C26 16 26 23 21 27 C16 30 9 29 6 24 C3 19 3 10 8 6 Z" 
          fill="#0E2C20" stroke="#A4E347" stroke-width="1.4" stroke-linejoin="round" />

    <!-- Pulpa verde cremosa vibrante -->
    <path d="M9 7.5 C13 5 18 7.5 21 11.5 C23.5 15.5 23.5 21.5 19.5 25 C15.5 27.5 10 26.5 7.5 22.5 C5 18.5 5.5 11 9 7.5 Z" 
          fill="#D4EA7C" stroke="#9AB55D" stroke-width="0.8" />

    <!-- Centro pulpa suave -->
    <ellipse cx="14.5" cy="17" rx="5.5" ry="6.5" fill="#F4F8B8" transform="rotate(-25 14.5 17)" />

    <!-- Pepa semilla marrón con brillo de clic -->
    <ellipse cx="15.5" cy="18" rx="3.8" ry="4.5" fill="#583215" stroke="#3A1D08" stroke-width="0.8" transform="rotate(-25 15.5 18)" />
    <ellipse cx="14.2" cy="16.5" rx="1.2" ry="1.8" fill="#B37340" opacity="0.95" transform="rotate(-25 14.2 16.5)" />
    <circle cx="13.8" cy="15.8" r="0.7" fill="#FFFFFF" />

    <!-- Pequeño destello de interactividad en la punta -->
    <polygon points="4,0 4.8,2.2 7,3 4.8,3.8 4,6 3.2,3.8 1,3 3.2,2.2" fill="#FFFFFF" />
  </g>
</svg>
